
<svg width="195px" height="33px" viewBox="0 0 195 33" version="1.1" xmlns="http://www.w3.org/2000/svg" xmlns:xlink="http://www.w3.org/1999/xlink">
    <!-- Generator: Sketch 49.3 (51167) - http://www.bohemiancoding.com/sketch -->
    <desc>Created with Sketch.</desc>
    <defs></defs>
    <g id="Page-1" stroke="none" stroke-width="1" fill="none" fill-rule="evenodd">
        <g id="Artboard" transform="translate(-75.000000, -166.000000)">
            <g id="Group-2" transform="translate(239.000000, 168.173916)">
                <circle id="Oval-3" stroke="#FFFFFF" fill="#FF5540" cx="15" cy="15" r="15"></circle>
                <g id="copyright-symbol" transform="translate(5.000000, 5.000000)" fill="#FFFFFF" fill-rule="nonzero">
                    <path d="M9.735025,1.82531719 C14.1157863,1.82531719 17.6447328,5.35426375 17.6447328,9.735025 C17.6447328,14.1157863 14.1157863,17.6447328 9.735025,17.6447328 C5.35426375,17.6447328 1.82531719,14.1157863 1.82531719,9.735025 C1.82531719,5.35426375 5.35426375,1.82531719 9.735025,1.82531719 Z M9.735025,0 C4.38076125,0 0,4.38076125 0,9.735025 C0,15.0892888 4.38076125,19.47005 9.735025,19.47005 C15.0892888,19.47005 19.47005,15.0892888 19.47005,9.735025 C19.47005,4.38076125 15.0892888,0 9.735025,0 Z" id="Shape"></path>
                    <path d="M12.0470934,12.5338447 C11.4386544,13.0205959 10.5868397,13.3856594 9.735025,13.3856594 C7.66633219,13.3856594 6.08439063,11.8037178 6.08439063,9.735025 C6.08439063,7.66633219 7.66633219,6.08439063 9.735025,6.08439063 C10.7085275,6.08439063 11.68203,6.44945406 12.2904691,7.17958094 L13.629035,5.841015 C12.6555325,4.8675125 11.1952788,4.25907344 9.735025,4.25907344 C6.69282969,4.25907344 4.25907344,6.69282969 4.25907344,9.735025 C4.25907344,12.7772203 6.69282969,15.2109766 9.735025,15.2109766 C11.0735909,15.2109766 12.1687813,14.7242253 13.1422838,13.9940984 L12.0470934,12.5338447 Z" id="Shape"></path>
                </g>
            </g>
            <g id="iconfinder_linkedin_287553" transform="translate(76.000000, 167.173916)" fill-rule="nonzero">
                <path d="M15,30 C23.2842717,30 30,23.2842717 30,15 C30,6.71572835 23.2842717,0 15,0 C6.71572835,0 0,6.71572835 0,15 C0,23.2842717 6.71572835,30 15,30 Z" id="Linkedin" stroke="#FFFFFF" stroke-width="1.5" fill="#FF5540"></path>
                <path d="M10.9415377,21.9115756 L10.9415377,12.7621695 L8.113685,12.7621695 L8.113685,21.9115756 L10.9415377,21.9115756 Z M10.9415377,9.51910725 C10.9246941,8.70033 10.3790078,8.0769231 9.49252715,8.0769231 C8.6058158,8.0769231 8.0264423,8.70033 8.0264423,9.51910725 C8.0264423,10.3201012 8.5889722,10.9615385 9.45860925,10.9615385 L9.47545285,10.9615385 C10.3790078,10.9615385 10.9415377,10.3201012 10.9415377,9.51910725 Z M15.5550209,21.9115758 L15.5550209,16.6986865 C15.5550209,16.4197007 15.5751852,16.140715 15.6572236,15.9418341 C15.881517,15.3841389 16.391978,14.8068319 17.2490995,14.8068319 C18.3719479,14.8068319 19.076139,15.4440794 19.076139,16.6986863 L19.076139,21.9115758 L21.9230769,21.9115758 L21.9230769,16.5591936 C21.9230769,13.6919939 20.3925227,12.3578345 18.3509549,12.3578345 C16.6770406,12.3578345 15.9422862,13.2936797 15.5343042,13.930651 L15.5547446,12.7069561 L12.712731,12.7069561 C12.7536121,13.5828608 12.712731,21.9115758 12.712731,21.9115758 L15.5550209,21.9115758 Z" id="Shape" fill="#FFFFFF"></path>
            </g>
            <g id="iconfinder_facebook_circle_294710" transform="translate(157.000000, 167.173916)" fill-rule="nonzero">
                <circle id="Oval" stroke="#FFFFFF" stroke-width="1.5" fill="#FF5540" cx="15" cy="15" r="15"></circle>
                <path d="M18.6875,12.1875 L16.1875,12.1875 L16.1875,10.5625 C16.1875,9.9375 16.625,9.8125 16.875,9.8125 C17.1875,9.8125 18.625,9.8125 18.625,9.8125 L18.625,7.0625 L16.1875,7.0625 C13.4375,7.0625 12.875,9.125 12.875,10.375 L12.875,12.1875 L11.3125,12.1875 L11.3125,15 L12.875,15 C12.875,18.625 12.875,22.9375 12.875,22.9375 L16.1875,22.9375 C16.1875,22.9375 16.1875,18.5625 16.1875,15 L18.4375,15 L18.6875,12.1875 Z" id="Shape" fill="#FFFFFF"></path>
            </g>
            <g id="iconfinder_twitter_circle_294709" transform="translate(116.000000, 167.173916)" fill-rule="nonzero">
                <circle id="Oval" stroke="#FFFFFF" stroke-width="1.5" fill="#FF5540" cx="15" cy="15" r="15"></circle>
                <path d="M23,9.625 C22.4375,9.9375 21.75,10.125 21.125,10.1875 C21.8125,9.75 22.3125,9.0625 22.5625,8.25 C21.9375,8.625 21.25,8.9375 20.4375,9.125 C19.8125,8.4375 19,8 18.0625,8 C16.25,8 14.75,9.5625 14.75,11.5625 C14.75,11.8125 14.75,12.125 14.8125,12.375 C12.0625,12.25 9.625,10.8125 8,8.6875 C7.6875,9.1875 7.5625,9.8125 7.5625,10.5 C7.5625,11.75 8.125,12.8125 9,13.4375 C8.4375,13.4375 7.9375,13.25 7.5,13 C7.5,13 7.5,13.0625 7.5,13.0625 C7.5,14.75 8.625,16.1875 10.125,16.5625 C9.875,16.625 9.5625,16.6875 9.25,16.6875 C9.0625,16.6875 8.8125,16.6875 8.625,16.625 C9.0625,18.0625 10.25,19.0625 11.6875,19.0625 C10.5625,20 9.125,20.5625 7.625,20.5625 C7.375,20.5625 7.125,20.5625 6.8125,20.5 C8.25,21.5 10,22.125 11.875,22.125 C17.9375,22.125 21.25,16.75 21.25,12.0625 C21.25,11.9375 21.25,11.75 21.25,11.625 C22,11 22.5625,10.375 23,9.625 Z" id="Shape" fill="#FFFFFF"></path>
            </g>
            <g id="Group" transform="translate(197.500000, 167.173916)">
                <circle id="Oval-2" fill="#FFFFFF" cx="15.5302362" cy="15.5267617" r="10.6471545"></circle>
                <g id="iconfinder_38-instagram_1161954" transform="translate(0.530236, 0.526762)" fill="#FF5540" fill-rule="nonzero">
                    <circle id="Oval" cx="15.06" cy="15" r="2.64"></circle>
                    <path d="M18.36,8.52 L11.76,8.52 C10.8,8.52 9.96,8.82 9.42,9.36 C8.88,9.9 8.58,10.74 8.58,11.7 L8.58,18.3 C8.58,19.26 8.88,20.1 9.48,20.7 C10.08,21.24 10.86,21.54 11.82,21.54 L18.36,21.54 C19.32,21.54 20.16,21.24 20.7,20.7 C21.3,20.16 21.6,19.32 21.6,18.36 L21.6,11.76 C21.6,10.8 21.3,10.02 20.76,9.42 C20.16,8.82 19.38,8.52 18.36,8.52 Z M15.06,19.08 C12.78,19.08 10.98,17.22 10.98,15 C10.98,12.72 12.84,10.92 15.06,10.92 C17.28,10.92 19.2,12.72 19.2,15 C19.2,17.28 17.34,19.08 15.06,19.08 Z M19.32,11.7 C18.78,11.7 18.36,11.28 18.36,10.74 C18.36,10.2 18.78,9.78 19.32,9.78 C19.86,9.78 20.28,10.2 20.28,10.74 C20.28,11.28 19.86,11.7 19.32,11.7 Z" id="Shape"></path>
                    <path d="M15.18,0.12 C7.02,0.12 0.42,6.72 0.42,14.88 C0.42,23.04 7.02,29.64 15.18,29.64 C23.34,29.64 29.94,23.04 29.94,14.88 C30,6.72 23.34,0.12 15.18,0.12 Z M23.04,18.36 C23.04,19.74 22.56,20.94 21.72,21.78 C20.88,22.62 19.68,23.04 18.36,23.04 L11.82,23.04 C10.5,23.04 9.3,22.62 8.46,21.78 C7.56,20.94 7.14,19.74 7.14,18.36 L7.14,11.76 C7.14,9 9,7.08 11.82,7.08 L18.42,7.08 C19.8,7.08 20.94,7.56 21.78,8.4 C22.62,9.24 23.04,10.38 23.04,11.76 L23.04,18.36 Z" id="Shape" stroke="#FFFFFF" stroke-width="1.5"></path>
                </g>
            </g>
        </g>
    </g>
</svg>