
<svg width="143px" height="26px" viewBox="0 0 143 26" version="1.1" xmlns="http://www.w3.org/2000/svg" xmlns:xlink="http://www.w3.org/1999/xlink">
    <!-- Generator: Sketch 49.3 (51167) - http://www.bohemiancoding.com/sketch -->
    <desc>Created with Sketch.</desc>
    <defs>
        <linearGradient x1="50.4452055%" y1="98.86925%" x2="50.4452055%" y2="30.941%" id="linearGradient-1">
            <stop stop-color="#FF2080" offset="0%"></stop>
            <stop stop-color="#FF5540" offset="100%"></stop>
        </linearGradient>
        <linearGradient x1="49.9511962%" y1="99.0758242%" x2="49.9511962%" y2="-0.452747253%" id="linearGradient-2">
            <stop stop-color="#FF2080" offset="0%"></stop>
            <stop stop-color="#FF5540" offset="100%"></stop>
        </linearGradient>
        <linearGradient x1="49.539313%" y1="97.9843066%" x2="49.539313%" y2="-1.1810219%" id="linearGradient-3">
            <stop stop-color="#FF2080" offset="0%"></stop>
            <stop stop-color="#FF5540" offset="100%"></stop>
        </linearGradient>
        <linearGradient x1="49.6686869%" y1="98.7142336%" x2="49.6686869%" y2="-0.451094891%" id="linearGradient-4">
            <stop stop-color="#FF2080" offset="0%"></stop>
            <stop stop-color="#FF5540" offset="100%"></stop>
        </linearGradient>
        <linearGradient x1="49.6461538%" y1="65.7329298%" x2="49.6461538%" y2="-0.0571428571%" id="linearGradient-5">
            <stop stop-color="#FF2080" offset="0%"></stop>
            <stop stop-color="#FF5540" offset="100%"></stop>
        </linearGradient>
        <linearGradient x1="49.5941558%" y1="100.121374%" x2="49.5941558%" y2="30.9832061%" id="linearGradient-6">
            <stop stop-color="#FF2080" offset="0%"></stop>
            <stop stop-color="#FF5540" offset="100%"></stop>
        </linearGradient>
        <linearGradient x1="49.8584718%" y1="99.394964%" x2="49.8584718%" y2="34.2359712%" id="linearGradient-7">
            <stop stop-color="#FF2080" offset="0%"></stop>
            <stop stop-color="#FF5540" offset="100%"></stop>
        </linearGradient>
        <linearGradient x1="50.2880531%" y1="98.3432234%" x2="50.2880531%" y2="-1.18534799%" id="linearGradient-8">
            <stop stop-color="#FF2080" offset="0%"></stop>
            <stop stop-color="#FF5540" offset="100%"></stop>
        </linearGradient>
        <linearGradient x1="49.5290076%" y1="97.9843066%" x2="49.5290076%" y2="-1.1810219%" id="linearGradient-9">
            <stop stop-color="#FF2080" offset="0%"></stop>
            <stop stop-color="#FF5540" offset="100%"></stop>
        </linearGradient>
        <linearGradient x1="50.15311%" y1="99.0758242%" x2="50.15311%" y2="-0.452747253%" id="linearGradient-10">
            <stop stop-color="#FF2080" offset="0%"></stop>
            <stop stop-color="#FF5540" offset="100%"></stop>
        </linearGradient>
        <linearGradient x1="49.747619%" y1="65.6497573%" x2="49.747619%" y2="-0.3%" id="linearGradient-11">
            <stop stop-color="#FF2080" offset="0%"></stop>
            <stop stop-color="#FF5540" offset="100%"></stop>
        </linearGradient>
        <radialGradient cx="107.300591%" cy="133.416309%" fx="107.300591%" fy="133.416309%" r="224.411301%" gradientTransform="translate(1.073006,1.334163),scale(0.529590,1.000000),translate(-1.073006,-1.334163)" id="radialGradient-12">
            <stop stop-color="#FFE000" offset="0%"></stop>
            <stop stop-color="#FFAA00" offset="50%"></stop>
            <stop stop-color="#FF2080" offset="100%"></stop>
        </radialGradient>
        <radialGradient cx="116.0558%" cy="66.2630821%" fx="116.0558%" fy="66.2630821%" r="224.648086%" gradientTransform="translate(1.160558,0.662631),scale(0.504858,1.000000),translate(-1.160558,-0.662631)" id="radialGradient-13">
            <stop stop-color="#FFE000" offset="0%"></stop>
            <stop stop-color="#FFAA00" offset="50%"></stop>
            <stop stop-color="#FF2080" offset="100%"></stop>
        </radialGradient>
        <radialGradient cx="126.109562%" cy="10.4419129%" fx="126.109562%" fy="10.4419129%" r="162.090133%" gradientTransform="translate(1.261096,0.104419),scale(0.884438,1.000000),translate(-1.261096,-0.104419)" id="radialGradient-14">
            <stop stop-color="#FFE000" offset="0%"></stop>
            <stop stop-color="#FFAA00" offset="50%"></stop>
            <stop stop-color="#FF2080" offset="100%"></stop>
        </radialGradient>
        <radialGradient cx="137.574778%" cy="-6.65018316%" fx="137.574778%" fy="-6.65018316%" r="224.411301%" gradientTransform="translate(1.375748,-0.066502),scale(1.000000,0.529590),translate(-1.375748,0.066502)" id="radialGradient-15">
            <stop stop-color="#FFE000" offset="0%"></stop>
            <stop stop-color="#FFAA00" offset="50%"></stop>
            <stop stop-color="#FF2080" offset="100%"></stop>
        </radialGradient>
        <radialGradient cx="70.4259386%" cy="-16.0740084%" fx="70.4259386%" fy="-16.0740084%" r="224.648086%" gradientTransform="translate(0.704259,-0.160740),scale(1.000000,0.504858),translate(-0.704259,0.160740)" id="radialGradient-16">
            <stop stop-color="#FFE000" offset="0%"></stop>
            <stop stop-color="#FFAA00" offset="50%"></stop>
            <stop stop-color="#FF2080" offset="100%"></stop>
        </radialGradient>
        <radialGradient cx="13.9020819%" cy="-24.2867879%" fx="13.9020819%" fy="-24.2867879%" r="162.090133%" gradientTransform="translate(0.139021,-0.242868),scale(1.000000,0.879946),translate(-0.139021,0.242868)" id="radialGradient-17">
            <stop stop-color="#FFE000" offset="0%"></stop>
            <stop stop-color="#FFAA00" offset="50%"></stop>
            <stop stop-color="#FF2080" offset="100%"></stop>
        </radialGradient>
        <radialGradient cx="-4.44790049%" cy="-36.346642%" fx="-4.44790049%" fy="-36.346642%" r="224.411301%" gradientTransform="translate(-0.044479,-0.363466),scale(0.529590,1.000000),translate(0.044479,0.363466)" id="radialGradient-18">
            <stop stop-color="#FFE000" offset="0%"></stop>
            <stop stop-color="#FFAA00" offset="50%"></stop>
            <stop stop-color="#FF2080" offset="100%"></stop>
        </radialGradient>
        <radialGradient cx="-13.9723568%" cy="30.803493%" fx="-13.9723568%" fy="30.803493%" r="224.648086%" gradientTransform="translate(-0.139724,0.308035),scale(0.504858,1.000000),translate(0.139724,-0.308035)" id="radialGradient-19">
            <stop stop-color="#FFE000" offset="0%"></stop>
            <stop stop-color="#FFAA00" offset="50%"></stop>
            <stop stop-color="#FF2080" offset="100%"></stop>
        </radialGradient>
        <radialGradient cx="-21.6437624%" cy="86.9849887%" fx="-21.6437624%" fy="86.9849887%" r="162.090133%" gradientTransform="translate(-0.216438,0.869850),scale(0.879946,1.000000),translate(0.216438,-0.869850)" id="radialGradient-20">
            <stop stop-color="#FFE000" offset="0%"></stop>
            <stop stop-color="#FFAA00" offset="50%"></stop>
            <stop stop-color="#FF2080" offset="100%"></stop>
        </radialGradient>
        <radialGradient cx="-32.1881733%" cy="105.098309%" fx="-32.1881733%" fy="105.098309%" r="224.411301%" gradientTransform="translate(-0.321882,1.050983),scale(1.000000,0.529590),translate(0.321882,-1.050983)" id="radialGradient-21">
            <stop stop-color="#FFE000" offset="0%"></stop>
            <stop stop-color="#FFAA00" offset="50%"></stop>
            <stop stop-color="#FF2080" offset="100%"></stop>
        </radialGradient>
        <radialGradient cx="34.9663495%" cy="114.273597%" fx="34.9663495%" fy="114.273597%" r="224.648086%" gradientTransform="translate(0.349663,1.142736),scale(1.000000,0.504858),translate(-0.349663,-1.142736)" id="radialGradient-22">
            <stop stop-color="#FFE000" offset="0%"></stop>
            <stop stop-color="#FFAA00" offset="50%"></stop>
            <stop stop-color="#FF2080" offset="100%"></stop>
        </radialGradient>
        <radialGradient cx="89.9886108%" cy="122.424337%" fx="89.9886108%" fy="122.424337%" r="162.090133%" gradientTransform="translate(0.899886,1.224243),scale(1.000000,0.879946),translate(-0.899886,-1.224243)" id="radialGradient-23">
            <stop stop-color="#FFE000" offset="0%"></stop>
            <stop stop-color="#FFAA00" offset="50%"></stop>
            <stop stop-color="#FF2080" offset="100%"></stop>
        </radialGradient>
    </defs>
    <g id="Page-1" stroke="none" stroke-width="1" fill="none" fill-rule="evenodd">
        <g id="Artboard" transform="translate(-95.000000, -116.000000)" fill-rule="nonzero">
            <g id="gt-logo-H" transform="translate(95.000000, 116.534110)">
                <g id="XMLID_2773_" transform="translate(31.052256, 4.436037)">
                    <path d="M9.58866375,10.5782411 C9.58866375,10.1346375 9.55454039,9.7934039 9.52041703,9.52041703 C9.48629367,9.28155352 9.41804695,9.07681337 9.28155352,8.94031993 C9.17918344,8.8038265 9.00856665,8.73557978 8.76970314,8.70145642 C8.53083963,8.66733307 8.25785276,8.63320971 7.88249582,8.63320971 C7.84837246,8.53083963 7.8142491,8.3943462 7.78012574,8.2237294 C7.74600239,8.05311261 7.74600239,7.88249582 7.74600239,7.74600239 C7.98486589,7.78012574 8.36022284,7.78012574 8.83794986,7.78012574 C9.31567688,7.78012574 9.75928054,7.78012574 10.1687608,7.78012574 C10.5782411,7.78012574 11.0218448,7.78012574 11.4654485,7.78012574 C11.9090521,7.78012574 12.2502857,7.78012574 12.4550259,7.74600239 C12.4550259,7.84837246 12.4550259,8.01898925 12.4209025,8.18960605 C12.4209025,8.36022284 12.3867791,8.49671627 12.3185324,8.63320971 C12.1137923,8.63320971 11.9772988,8.66733307 11.8408054,8.70145642 C11.7384353,8.73557978 11.6360653,8.83794986 11.5678185,8.94031993 C11.4995718,9.07681337 11.4654485,9.28155352 11.4313251,9.52041703 C11.3972017,9.75928054 11.3972017,10.1346375 11.3972017,10.5782411 L11.3972017,11.4654485 C11.3972017,11.7384353 11.3972017,11.9772988 11.4313251,12.2161624 C11.4654485,12.4550259 11.5336952,12.659766 11.6360653,12.8303828 C11.0559682,13.2398631 10.3393776,13.6152201 9.48629367,13.8882069 C8.59908635,14.1611938 7.60950895,14.2976872 6.48343812,14.2976872 C5.52798408,14.2976872 4.64077676,14.1270704 3.85593951,13.7858368 C3.07110227,13.4446033 2.3886351,12.9668762 1.808538,12.3867791 C1.22844091,11.7725587 0.784837246,11.0559682 0.477727019,10.1687608 C0.170616793,9.31567688 0,8.36022284 0,7.30239872 C0,6.21045125 0.204740151,5.22087385 0.580097095,4.40191325 C0.955454039,3.58295265 1.46730442,2.86636212 2.11564823,2.32038838 C2.76399204,1.77441464 3.48058257,1.36493434 4.29954317,1.05782411 C5.11850378,0.784837246 5.93746438,0.648343812 6.82467171,0.648343812 C7.78012574,0.648343812 8.63320971,0.716590529 9.45217031,0.887207322 C10.2711309,1.05782411 10.9535981,1.29668762 11.5336952,1.56967449 C11.4313251,2.01327815 11.3972017,2.49100517 11.3630784,3.00285555 C11.328955,3.48058257 11.328955,4.02655631 11.328955,4.64077676 C11.0218448,4.74314684 10.6806112,4.81139355 10.2711309,4.81139355 C10.2370076,4.12892638 10.1346375,3.58295265 9.96402069,3.13934898 C9.7934039,2.69574532 9.55454039,2.35451174 9.24743016,2.11564823 C8.94031993,1.87678472 8.59908635,1.70616793 8.2237294,1.60379785 C7.8142491,1.50142778 7.4047688,1.46730442 6.96116514,1.46730442 C6.10808118,1.46730442 5.39149065,1.60379785 4.77727019,1.91090808 C4.16304974,2.2180183 3.65119936,2.62749861 3.24171906,3.10522563 C2.83223876,3.617076 2.55925189,4.16304974 2.35451174,4.81139355 C2.14977159,5.45973736 2.04740151,6.14220453 2.04740151,6.85879506 C2.04740151,7.74600239 2.14977159,8.59908635 2.35451174,9.38392359 C2.55925189,10.1687608 2.83223876,10.851228 3.24171906,11.4313251 C3.65119936,12.0114222 4.12892638,12.4891492 4.74314684,12.8303828 C5.32324393,13.1716164 6.03983446,13.3422332 6.82467171,13.3422332 C7.23415201,13.3422332 7.57538559,13.3081098 7.88249582,13.2739865 C8.18960605,13.2398631 8.49671627,13.137493 8.8038265,13.035123 C9.04269001,12.9327529 9.17918344,12.7962594 9.31567688,12.5915193 C9.41804695,12.3867791 9.48629367,12.0455456 9.48629367,11.5336952 L9.48629367,10.5782411 L9.58866375,10.5782411 Z" id="XMLID_2798_" fill="url(#linearGradient-1)"></path>
                    <path d="M16.5498289,8.25785276 C16.4474588,8.53083963 16.4133355,8.83794986 16.3792121,9.14506008 L16.3792121,11.226585 C16.3792121,11.6701886 16.4133355,12.0114222 16.4815822,12.2844091 C16.5498289,12.5573959 16.652199,12.7621361 16.7886924,12.8986295 C16.9251858,13.0692463 17.129926,13.1716164 17.3346661,13.2398631 C17.5394063,13.3081098 17.8123932,13.3422332 18.1195034,13.3422332 C18.1877501,13.51285 18.2218735,13.8199602 18.2218735,14.1953171 C17.9147632,14.1611938 17.5394063,14.1611938 17.0958026,14.1611938 C16.652199,14.1611938 16.2085953,14.1611938 15.7308683,14.1611938 L15.0142778,14.1611938 C14.7754142,14.1611938 14.5365507,14.1611938 14.2976872,14.1611938 C14.0588237,14.1611938 13.8540836,14.1611938 13.6493434,14.1953171 C13.4446033,14.1953171 13.2739865,14.1953171 13.1716164,14.2294405 C13.1716164,13.8540836 13.2057397,13.5810967 13.2739865,13.3763565 C13.7858368,13.3422332 14.1611938,13.2057397 14.3318106,13.0009996 C14.5365507,12.7621361 14.6047974,12.3185324 14.6047974,11.6701886 L14.6047974,7.74600239 C14.6047974,7.50713888 14.6047974,7.30239872 14.5706741,7.13178193 C14.5365507,6.96116514 14.468304,6.82467171 14.3659339,6.72230163 C14.2635639,6.61993155 14.1270704,6.51756148 13.9223303,6.48343812 C13.7175901,6.4151914 13.4787266,6.38106804 13.137493,6.38106804 C13.137493,6.24457461 13.137493,6.10808118 13.1716164,5.97158774 C13.2057397,5.86921767 13.2398631,5.73272423 13.3081098,5.63035416 C13.51285,5.63035416 13.7175901,5.5962308 13.9564536,5.52798408 C14.1953171,5.49386072 14.4341807,5.42561401 14.6730442,5.35736729 C14.9119077,5.28912057 15.1507712,5.22087385 15.3555113,5.15262714 C15.5602515,5.08438042 15.7649916,5.0161337 15.9014851,4.91376363 C16.0038551,4.94788699 16.1062252,5.05025706 16.2085953,5.15262714 C16.276842,5.28912057 16.3450887,5.49386072 16.3450887,5.76684759 C16.3450887,6.21045125 16.3109654,6.61993155 16.2427187,6.9952885 L16.0721019,7.8142491 C16.1403486,7.60950895 16.2085953,7.43889216 16.2427187,7.26827537 C16.3109654,7.02941186 16.4133355,6.82467171 16.5157055,6.68817827 C16.7886924,6.24457461 17.129926,5.83509431 17.5394063,5.56210744 C17.9488866,5.25499721 18.3924902,5.11850378 18.9043406,5.11850378 C19.1773275,5.11850378 19.416191,5.15262714 19.6209312,5.22087385 C19.8256713,5.28912057 20.0645348,5.42561401 20.269275,5.56210744 C20.2010282,5.90334102 20.1669049,6.27869797 20.1669049,6.72230163 C20.1327815,7.16590529 20.1327815,7.54126223 20.1327815,7.88249582 C20.0304115,7.91661918 19.8597947,7.95074254 19.6550545,7.98486589 C19.4503144,8.01898925 19.2455742,8.05311261 19.0067107,8.05311261 C18.9725873,7.43889216 18.8702173,6.9952885 18.6996005,6.82467171 C18.5289837,6.61993155 18.2901202,6.51756148 18.0512567,6.51756148 C17.8806399,6.51756148 17.7100231,6.5858082 17.5052829,6.72230163 C17.3005428,6.85879506 17.129926,7.06353521 16.9593092,7.33652208 C16.7886924,7.60950895 16.652199,7.91661918 16.5498289,8.25785276 Z" id="XMLID_2796_" fill="url(#linearGradient-2)"></path>
                    <path d="M20.7128786,9.6227871 C20.7128786,8.94031993 20.8152487,8.32609948 21.0541122,7.78012574 C21.2588524,7.20002865 21.5659626,6.72230163 21.9754429,6.31282133 C22.3849232,5.90334102 22.8285269,5.56210744 23.3745006,5.32324393 C23.9204743,5.08438042 24.5346948,4.98201034 25.1830386,4.98201034 C25.8655058,4.98201034 26.5138496,5.08438042 27.0598233,5.32324393 C27.605797,5.56210744 28.0835241,5.86921767 28.458881,6.27869797 C28.834238,6.68817827 29.1413482,7.20002865 29.3460883,7.74600239 C29.5508285,8.32609948 29.6531986,8.97444329 29.6531986,9.65691046 C29.6531986,10.3393776 29.5508285,10.9535981 29.311965,11.5336952 C29.1072248,12.1137923 28.8001146,12.5915193 28.4247577,13.0009996 C28.0494007,13.4104799 27.5716737,13.7517135 27.0257,13.990577 C26.4797262,14.2294405 25.8655058,14.3318106 25.217162,14.3318106 C24.5346948,14.3318106 23.9545977,14.2294405 23.3745006,13.990577 C22.8285269,13.7517135 22.3507998,13.4446033 21.9754429,13.035123 C21.6000859,12.6256427 21.2929757,12.1479156 21.0882356,11.5678185 C20.8152487,10.9877214 20.7128786,10.3393776 20.7128786,9.6227871 Z M22.6920334,9.2133068 C22.6920334,10.5441178 22.9308969,11.5678185 23.4086239,12.2844091 C23.886351,13.0009996 24.5005714,13.3422332 25.319532,13.3422332 C26.1043693,13.3422332 26.6844664,13.0009996 27.0598233,12.3526558 C27.4351803,11.704312 27.6399204,10.851228 27.6399204,9.82752726 C27.6399204,9.2133068 27.5716737,8.66733307 27.4351803,8.18960605 C27.2986868,7.71187903 27.0939467,7.26827537 26.8550832,6.92704178 C26.6162196,6.5858082 26.3432328,6.31282133 26.0019992,6.14220453 C25.694889,5.97158774 25.3536554,5.86921767 24.9782984,5.86921767 C24.2275846,5.86921767 23.6474875,6.17632789 23.2721305,6.79054835 C22.8626502,7.43889216 22.6920334,8.2237294 22.6920334,9.2133068 Z" id="XMLID_2793_" fill="url(#linearGradient-3)"></path>
                    <path d="M36.7849805,7.64363231 C36.7849805,7.4047688 36.7849805,7.20002865 36.7508571,7.02941186 C36.7167338,6.85879506 36.6484871,6.72230163 36.546117,6.61993155 C36.4437469,6.51756148 36.3072535,6.4151914 36.1025133,6.38106804 C35.8977732,6.31282133 35.6589097,6.27869797 35.3176761,6.27869797 C35.3176761,6.14220453 35.3176761,6.0057111 35.3517994,5.90334102 C35.3517994,5.80097095 35.4200461,5.66447752 35.4541695,5.56210744 C35.9660199,5.52798408 36.4778703,5.45973736 36.9555973,5.35736729 C37.4333243,5.25499721 37.8428046,5.11850378 38.1499148,4.98201034 C38.2522849,5.0161337 38.354655,5.11850378 38.4570251,5.22087385 C38.5252718,5.35736729 38.5935185,5.56210744 38.5935185,5.83509431 L38.5935185,11.4654485 C38.5935185,11.704312 38.5935185,11.9090521 38.6276419,12.0796689 C38.6617652,12.2502857 38.6958886,12.3867791 38.7982586,12.4891492 C38.9006287,12.5915193 39.0371222,12.6938894 39.2077389,12.7280127 C39.3783557,12.7962594 39.6172192,12.8303828 39.9243295,12.8303828 C39.9243295,12.9668762 39.9243295,13.1033697 39.8902061,13.2398631 C39.8902061,13.3763565 39.8560828,13.51285 39.787836,13.6493434 C39.6513426,13.6493434 39.4466025,13.6493434 39.2418623,13.6834668 C39.0029988,13.7175901 38.7982586,13.7517135 38.5593951,13.8199602 C38.3205316,13.8882069 38.1157915,13.9223303 37.9110513,14.0247004 C37.7063112,14.0929471 37.5356944,14.1953171 37.4333243,14.2635639 C37.3309542,14.2294405 37.1944608,14.1270704 37.0920907,14.0247004 C36.9897206,13.8882069 36.9214739,13.6493434 36.9214739,13.3081098 C36.9214739,13.035123 36.9214739,12.7962594 36.9555973,12.5232726 L36.9555973,12.3526558 C36.8191038,12.6256427 36.6143637,12.9327529 36.3755002,13.1716164 C35.693033,13.8540836 34.9081958,14.1611938 33.9868651,14.1611938 C33.5432614,14.1611938 33.1337811,14.0929471 32.7584242,13.990577 C32.3830672,13.8882069 32.1100804,13.6834668 31.8370935,13.4104799 C31.59823,13.137493 31.3934898,12.7962594 31.2911198,12.3526558 C31.1546263,11.9090521 31.120503,11.3630784 31.120503,10.6806112 L31.120503,7.71187903 C31.120503,7.47301552 31.120503,7.26827537 31.0863796,7.09765857 C31.0522563,6.92704178 31.0181329,6.79054835 30.9157628,6.68817827 C30.8133927,6.5858082 30.6768993,6.48343812 30.5062825,6.44931476 C30.3356657,6.38106804 30.0968022,6.34694469 29.789692,6.34694469 C29.789692,6.21045125 29.789692,6.07395782 29.8238154,5.97158774 C29.8238154,5.86921767 29.8920621,5.73272423 29.9261854,5.63035416 C30.1309256,5.63035416 30.3356657,5.5962308 30.5745292,5.52798408 C30.8133927,5.49386072 31.0181329,5.42561401 31.2569964,5.35736729 C31.4958599,5.28912057 31.7006001,5.22087385 31.9053402,5.15262714 C32.1100804,5.08438042 32.2806972,5.0161337 32.451314,4.91376363 C32.553684,4.94788699 32.6560541,5.05025706 32.7584242,5.15262714 C32.8266709,5.28912057 32.8949176,5.49386072 32.8949176,5.76684759 L32.8949176,10.2370076 C32.8949176,11.226585 33.0314111,11.9431755 33.3043979,12.3526558 C33.5773848,12.7621361 34.0209884,12.9668762 34.6693323,12.9668762 C34.9423191,12.9668762 35.1811826,12.8986295 35.4541695,12.7621361 C35.7271564,12.6256427 35.9318965,12.4209025 36.1366367,12.1479156 C36.3413768,11.8749288 36.5119936,11.5336952 36.6143637,11.0900915 C36.7508571,10.6806112 36.7849805,10.1687608 36.7849805,9.58866375 L36.7849805,7.64363231 Z" id="XMLID_2791_" fill="url(#linearGradient-4)"></path>
                    <path d="M44.8380931,14.2976872 C44.4627362,14.2976872 44.1215026,14.2635639 43.8485157,14.1953171 C43.6437756,14.1270704 43.4390354,14.0929471 43.2001719,14.0247004 L43.2001719,16.2085953 C43.2001719,16.5839522 43.2684186,16.8910625 43.3366653,17.129926 C43.404912,17.3687895 43.5072821,17.5394063 43.6778989,17.6758997 C43.8143923,17.8123932 43.9850091,17.9147632 44.2238726,17.9830099 C44.4286128,18.0512567 44.7015997,18.08538 44.9745865,18.08538 C45.0428333,18.2559968 45.0769566,18.563107 45.0769566,18.938464 C44.7698464,18.9043406 44.3944894,18.9043406 43.9508858,18.9043406 C43.5072821,18.9043406 43.0636785,18.9043406 42.5859514,18.9043406 L41.8693609,18.9043406 C41.6304974,18.9043406 41.3916339,18.9043406 41.1527704,18.9043406 C40.9139069,18.9043406 40.7091667,18.9043406 40.5044266,18.938464 C40.2996864,18.938464 40.1290696,18.938464 40.0266996,18.9725873 C40.0266996,18.5972304 40.0608229,18.3242435 40.1290696,18.1195034 C40.64092,18.08538 41.0162769,17.9488866 41.1868937,17.7441464 C41.3575105,17.5394063 41.4598806,17.0616793 41.4598806,16.4133355 L41.4598806,7.74600239 C41.4598806,7.50713888 41.4598806,7.30239872 41.4257572,7.13178193 C41.3916339,6.96116514 41.3233872,6.82467171 41.2210171,6.72230163 C41.118647,6.61993155 40.9821536,6.51756148 40.7774134,6.48343812 C40.5726733,6.4151914 40.3338098,6.38106804 39.9925762,6.38106804 C39.9925762,6.24457461 39.9925762,6.10808118 40.0266996,5.97158774 C40.0608229,5.86921767 40.0949463,5.73272423 40.163193,5.63035416 C40.3679331,5.63035416 40.5726733,5.5962308 40.8115368,5.52798408 C41.0504003,5.49386072 41.2892638,5.42561401 41.5281273,5.35736729 C41.7669908,5.28912057 42.0058543,5.22087385 42.2105945,5.15262714 C42.4153346,5.08438042 42.6200748,5.0161337 42.7565682,4.91376363 C42.8589383,4.94788699 42.9613084,5.05025706 43.0636785,5.15262714 C43.1319252,5.28912057 43.2001719,5.49386072 43.2001719,5.76684759 C43.2001719,6.07395782 43.1660485,6.34694469 43.0636785,6.61993155 C42.9954317,6.79054835 42.9613084,6.9952885 42.8589383,7.23415201 L43.0636785,6.82467171 C43.2001719,6.5858082 43.302542,6.44931476 43.3707887,6.34694469 C43.4731588,6.21045125 43.5755288,6.03983446 43.7461456,5.86921767 C43.9167624,5.69860087 44.1215026,5.52798408 44.3603661,5.39149065 C44.5992296,5.25499721 44.8722165,5.11850378 45.1452033,5.0161337 C45.4181902,4.91376363 45.7253004,4.87964027 46.066534,4.87964027 C47.2267282,4.87964027 48.1139355,5.22087385 48.7622793,5.90334102 C49.4106231,6.5858082 49.7518567,7.64363231 49.7518567,9.07681337 C49.7518567,9.82752726 49.6494867,10.4758711 49.4106231,11.1242149 C49.1717596,11.7384353 48.830526,12.2844091 48.4210457,12.7621361 C48.0115654,13.2398631 47.4655917,13.5810967 46.8854946,13.8540836 C46.2371508,14.1611938 45.5546836,14.2976872 44.8380931,14.2976872 Z M43.404912,8.18960605 C43.302542,8.59908635 43.2342953,9.07681337 43.2001719,9.6227871 L43.2001719,12.6938894 C43.3707887,12.8645062 43.5755288,13.0009996 43.780269,13.1033697 C44.0873792,13.2739865 44.4968595,13.3763565 44.9404632,13.3763565 C45.21345,13.3763565 45.5205603,13.3081098 45.8276705,13.2057397 C46.1689041,13.1033697 46.4760143,12.8986295 46.7490012,12.6256427 C47.021988,12.3526558 47.2949749,11.9431755 47.4655917,11.4654485 C47.6703319,10.9877214 47.7727019,10.3393776 47.7727019,9.55454039 C47.7727019,8.53083963 47.5679618,7.71187903 47.1584815,7.09765857 C46.7490012,6.48343812 46.2030274,6.17632789 45.588807,6.17632789 C45.3158201,6.17632789 45.0087099,6.24457461 44.735723,6.38106804 C44.4627362,6.51756148 44.1897493,6.72230163 43.9850091,7.02941186 C43.7120223,7.33652208 43.5414055,7.71187903 43.404912,8.18960605 Z" id="XMLID_2788_" fill="url(#linearGradient-5)"></path>
                    <path d="M58.3509431,1.60379785 L57.3613657,1.60379785 C56.8495153,1.60379785 56.440035,1.67204457 56.1670481,1.77441464 C55.8599379,1.87678472 55.6551978,2.04740151 55.484581,2.25214166 C55.3139642,2.45688181 55.1774707,2.69574532 55.109224,2.96873219 C55.0409773,3.24171906 54.9727306,3.54882929 54.9044839,3.85593951 C54.7679904,3.85593951 54.5973736,3.85593951 54.4267568,3.82181615 C54.2561401,3.7876928 54.1196466,3.75356944 53.9831532,3.68532272 C54.0855233,3.24171906 54.15377,2.72986868 54.2220167,2.2180183 C54.2902634,1.70616793 54.2902634,1.19431755 54.2902634,0.750713888 C54.8362372,0.784837246 55.5528277,0.784837246 56.4741584,0.784837246 C57.3613657,0.784837246 58.3168197,0.784837246 59.3063971,0.784837246 L60.7737015,0.784837246 C61.2514286,0.784837246 61.7291556,0.784837246 62.1727592,0.784837246 C62.6163629,0.784837246 63.0258432,0.784837246 63.4012001,0.750713888 C63.7765571,0.750713888 64.0836673,0.750713888 64.3907775,0.716590529 C64.3907775,1.60379785 64.4249009,2.59337525 64.4931476,3.65119936 C64.3566542,3.71944608 64.1860374,3.75356944 64.0154206,3.7876928 C63.8448038,3.82181615 63.674187,3.82181615 63.5376936,3.82181615 C63.5035702,3.10522563 63.3329534,2.55925189 62.9575965,2.14977159 C62.5822395,1.74029128 62.0021424,1.53555113 61.1831818,1.53555113 L60.2277278,1.53555113 L60.2277278,11.5678185 C60.2277278,11.9090521 60.2618512,12.182039 60.2959745,12.3867791 C60.3300979,12.5915193 60.3983446,12.7621361 60.534838,12.8986295 C60.6372081,13.035123 60.8078249,13.1033697 61.012565,13.1716164 C61.2173052,13.2398631 61.4902921,13.2739865 61.7974023,13.2739865 C61.865649,13.4446033 61.8997724,13.7517135 61.8997724,14.1270704 C61.4902921,14.0929471 61.0466884,14.0929471 60.6030847,14.0929471 C60.1594811,14.0929471 59.7500008,14.0929471 59.3063971,14.0929471 C58.8969168,14.0929471 58.4533132,14.0929471 57.9755861,14.0929471 C57.4978591,14.0929471 57.0883788,14.1270704 56.7130219,14.1270704 C56.7130219,13.7517135 56.7471452,13.4787266 56.8153919,13.2739865 C57.1225022,13.2739865 57.395489,13.2398631 57.6002292,13.1716164 C57.8049693,13.1033697 57.9755861,13.035123 58.0779562,12.8986295 C58.1803263,12.7621361 58.2826964,12.5915193 58.3168197,12.3867791 C58.3509431,12.182039 58.3850664,11.9090521 58.3850664,11.5678185 L58.3850664,1.60379785 L58.3509431,1.60379785 Z" id="XMLID_2786_" fill="url(#linearGradient-6)"></path>
                    <path d="M74.0818114,11.6360653 C74.0818114,12.3185324 74.1841814,12.7621361 74.3547982,13.0009996 C74.525415,13.2398631 74.8325252,13.3422332 75.2420055,13.3422332 C75.2761289,13.4446033 75.3102523,13.5810967 75.3102523,13.7175901 C75.3102523,13.8540836 75.3443756,13.990577 75.3443756,14.1953171 C75.0713888,14.1611938 74.7301552,14.1611938 74.3547982,14.1611938 C73.9794413,14.1611938 73.6040843,14.1611938 73.194604,14.1611938 C72.7851237,14.1611938 72.3756434,14.1611938 71.9320398,14.1953171 C71.5225595,14.1953171 71.1472025,14.2294405 70.8400923,14.2294405 C70.8400923,13.8540836 70.8742157,13.5810967 70.9424624,13.3763565 C71.4201894,13.3763565 71.761423,13.2398631 71.9661631,13.0009996 C72.1709033,12.7621361 72.3073967,12.3185324 72.3073967,11.6701886 L72.3073967,8.66733307 C72.3073967,8.2237294 72.2732734,7.8142491 72.1709033,7.50713888 C72.0685332,7.20002865 71.9661631,6.96116514 71.7955463,6.75642499 C71.6249295,6.5858082 71.4543128,6.44931476 71.2154492,6.34694469 C70.9765857,6.27869797 70.7377222,6.24457461 70.4988587,6.24457461 C70.2258718,6.24457461 69.9870083,6.31282133 69.7140215,6.4151914 C69.4410346,6.51756148 69.2021711,6.72230163 68.9974309,6.9952885 C68.7926908,7.26827537 68.622074,7.60950895 68.4855806,8.01898925 C68.3490871,8.42846956 68.2808404,8.94031993 68.2808404,9.55454039 L68.2808404,11.6701886 C68.2808404,12.3185324 68.3832105,12.7621361 68.5879506,13.0009996 C68.7926908,13.2398631 69.1339244,13.3763565 69.6457748,13.3763565 C69.6798981,13.4787266 69.7140215,13.6152201 69.7140215,13.7517135 C69.7140215,13.8882069 69.7481448,14.0247004 69.7481448,14.2294405 C69.475158,14.2294405 69.099801,14.1953171 68.6903207,14.1953171 C68.2467171,14.1953171 67.8372367,14.1611938 67.4277564,14.1611938 C67.0182761,14.1611938 66.6087958,14.1611938 66.1651922,14.1611938 C65.7215885,14.1611938 65.3803549,14.1953171 65.0732447,14.1953171 C65.0732447,13.8199602 65.1073681,13.5469733 65.1756148,13.3422332 C65.6874652,13.3422332 66.0286987,13.2057397 66.2334389,12.9668762 C66.438179,12.7280127 66.5405491,12.2844091 66.5405491,11.6360653 L66.5405491,2.83223876 C66.5405491,2.59337525 66.5405491,2.3886351 66.5064258,2.2180183 C66.4723024,2.04740151 66.4040557,1.91090808 66.3016856,1.77441464 C66.1993155,1.67204457 66.0628221,1.56967449 65.858082,1.50142778 C65.6533418,1.43318106 65.4144783,1.3990577 65.0732447,1.3990577 C65.0732447,1.26256427 65.0732447,1.12607083 65.1073681,0.989577397 C65.1414914,0.887207322 65.1756148,0.750713888 65.2438615,0.648343812 C65.3803549,0.648343812 65.5850951,0.614220453 65.8239586,0.580097095 C66.0628221,0.545973736 66.335809,0.477727019 66.5746725,0.443603661 C66.8476594,0.375356944 67.0865229,0.307110227 67.3253864,0.23886351 C67.5642499,0.170616793 67.7348667,0.0682467171 67.8713601,0 C67.9737302,0.0341233585 68.0761003,0.102370076 68.1784703,0.23886351 C68.2467171,0.341233585 68.3149638,0.545973736 68.3149638,0.784837246 L68.3149638,5.80097095 C68.3149638,5.97158774 68.3149638,6.14220453 68.2808404,6.34694469 C68.2808404,6.55168484 68.2125937,6.75642499 68.1784703,6.96116514 C68.2125937,6.89291842 68.2467171,6.82467171 68.2808404,6.72230163 C68.3149638,6.65405491 68.3832105,6.55168484 68.4514572,6.44931476 C68.5538273,6.27869797 68.6903207,6.14220453 68.8950609,5.97158774 C69.0656777,5.80097095 69.3045412,5.66447752 69.5434047,5.52798408 C69.7822682,5.39149065 70.0552551,5.28912057 70.3623653,5.1867505 C70.6694755,5.08438042 70.9765857,5.05025706 71.3519427,5.05025706 C71.7272996,5.05025706 72.0685332,5.11850378 72.4097668,5.22087385 C72.7510004,5.32324393 73.0581106,5.52798408 73.2969741,5.76684759 C73.569961,6.0057111 73.7747011,6.34694469 73.9111946,6.75642499 C74.047688,7.16590529 74.1500581,7.67775567 74.1500581,8.25785276 L74.1500581,11.6360653 L74.0818114,11.6360653 Z" id="XMLID_2784_" fill="url(#linearGradient-7)"></path>
                    <path d="M78.7908348,9.72515718 C78.3472312,9.72515718 77.9377509,9.75928054 77.5282706,9.7934039 C77.5282706,10.0663908 77.5623939,10.373501 77.6306406,10.6464879 C77.7330107,11.1242149 77.8695042,11.5336952 78.1083677,11.9090521 C78.3131078,12.2844091 78.620218,12.5915193 78.995575,12.8303828 C79.3709319,13.0692463 79.8486589,13.1716164 80.3946327,13.1716164 C80.8382363,13.1716164 81.2477166,13.0692463 81.657197,12.8986295 C82.0666773,12.6938894 82.4420342,12.4209025 82.7832678,12.0455456 C82.8856379,12.1137923 82.9880079,12.2161624 83.090378,12.3185324 C83.1927481,12.4209025 83.2268714,12.5573959 83.2609948,12.659766 C82.8173911,13.2398631 82.2714174,13.6834668 81.6913203,13.9223303 C81.1112232,14.1611938 80.4628794,14.2976872 79.7462889,14.2976872 C79.0638217,14.2976872 78.4496013,14.1611938 77.9036275,13.9223303 C77.3917771,13.6834668 76.9481735,13.3422332 76.6069399,12.9327529 C76.2657063,12.5232726 75.9927194,12.0114222 75.8221026,11.4654485 C75.6514859,10.8853514 75.5832391,10.3052543 75.5832391,9.65691046 C75.5832391,9.04269001 75.6856092,8.42846956 75.856226,7.88249582 C76.0609662,7.33652208 76.2998297,6.82467171 76.6751866,6.38106804 C77.0164202,5.93746438 77.4600239,5.5962308 77.9377509,5.35736729 C78.4496013,5.11850378 78.995575,4.98201034 79.6439188,4.98201034 C80.2922626,4.98201034 80.8382363,5.08438042 81.28184,5.32324393 C81.7254437,5.52798408 82.1008006,5.83509431 82.3737875,6.21045125 C82.6467743,6.5858082 82.8856379,6.9952885 83.0221313,7.50713888 C83.1586247,8.01898925 83.2609948,8.53083963 83.2951182,9.07681337 C83.2268714,9.34980024 83.1586247,9.55454039 82.9880079,9.75928054 L81.9984305,9.75928054 C81.5548269,9.75928054 81.0429765,9.75928054 80.4970028,9.75928054 C79.9851524,9.69103382 79.4050553,9.72515718 78.7908348,9.72515718 Z M77.664764,7.60950895 C77.5965173,7.95074254 77.5282706,8.32609948 77.4941472,8.8038265 L81.28184,8.8038265 C81.28184,7.95074254 81.1112232,7.23415201 80.804113,6.68817827 C80.4970028,6.14220453 80.0533991,5.86921767 79.473302,5.86921767 C79.2344385,5.86921767 78.995575,5.90334102 78.7567115,6.0057111 C78.517848,6.10808118 78.3131078,6.27869797 78.1083677,6.55168484 C77.9377509,6.82467171 77.8012574,7.16590529 77.664764,7.60950895 Z" id="XMLID_2781_" fill="url(#linearGradient-8)"></path>
                    <path d="M84.1140788,9.6227871 C84.1140788,8.94031993 84.2164488,8.32609948 84.4553124,7.78012574 C84.6600525,7.20002865 84.9671627,6.72230163 85.376643,6.31282133 C85.7861233,5.90334102 86.229727,5.56210744 86.7757007,5.32324393 C87.3216745,5.08438042 87.9358949,4.98201034 88.5842387,4.98201034 C89.2667059,4.98201034 89.9150497,5.08438042 90.4610235,5.32324393 C91.0069972,5.56210744 91.4847242,5.86921767 91.8600812,6.27869797 C92.2354381,6.68817827 92.5425483,7.20002865 92.7472885,7.74600239 C92.9520286,8.32609948 93.0543987,8.97444329 93.0543987,9.65691046 C93.0543987,10.3393776 92.9520286,10.9535981 92.7131651,11.5336952 C92.508425,12.1137923 92.2013147,12.5915193 91.8259578,13.0009996 C91.4506008,13.4104799 90.9728738,13.7517135 90.4269001,13.990577 C89.8809264,14.2294405 89.2667059,14.3318106 88.6183621,14.3318106 C87.9358949,14.3318106 87.3557978,14.2294405 86.7757007,13.990577 C86.229727,13.7517135 85.752,13.4446033 85.376643,13.035123 C85.0012861,12.6256427 84.6941759,12.1479156 84.4894357,11.5678185 C84.2164488,10.9877214 84.1140788,10.3393776 84.1140788,9.6227871 Z M86.0932336,9.2133068 C86.0932336,10.5441178 86.3320971,11.5678185 86.8098241,12.2844091 C87.2875511,13.0009996 87.9017716,13.3422332 88.7207322,13.3422332 C89.5055694,13.3422332 90.0856665,13.0009996 90.4610235,12.3526558 C90.8363804,11.704312 91.0411205,10.851228 91.0411205,9.82752726 C91.0411205,9.2133068 90.9728738,8.66733307 90.8363804,8.18960605 C90.699887,7.71187903 90.4951468,7.26827537 90.2562833,6.92704178 C90.0174198,6.5858082 89.7444329,6.31282133 89.4031993,6.14220453 C89.0960891,5.97158774 88.7548555,5.86921767 88.3794986,5.86921767 C87.6287847,5.86921767 87.0486876,6.17632789 86.6733307,6.79054835 C86.2638504,7.43889216 86.0932336,8.2237294 86.0932336,9.2133068 Z" id="XMLID_2778_" fill="url(#linearGradient-9)"></path>
                    <path d="M96.603228,8.25785276 C96.5008579,8.53083963 96.4667346,8.83794986 96.4326112,9.14506008 L96.4326112,11.226585 C96.4326112,11.6701886 96.4667346,12.0114222 96.5349813,12.2844091 C96.603228,12.5573959 96.7055981,12.7621361 96.8420915,12.8986295 C96.9785849,13.0692463 97.1833251,13.1716164 97.3880652,13.2398631 C97.5928054,13.3081098 97.8657923,13.3422332 98.1729025,13.3422332 C98.2411492,13.51285 98.2752726,13.8199602 98.2752726,14.1953171 C97.9681623,14.1611938 97.5928054,14.1611938 97.1492017,14.1611938 C96.7055981,14.1611938 96.2619944,14.1611938 95.7842674,14.1611938 L95.0676769,14.1611938 C94.8288133,14.1611938 94.5899498,14.1611938 94.3510863,14.1611938 C94.1122228,14.1611938 93.9074827,14.1611938 93.7027425,14.1953171 C93.4980024,14.1953171 93.3273856,14.1953171 93.2250155,14.2294405 C93.2250155,13.8540836 93.2591389,13.5810967 93.3273856,13.3763565 C93.8392359,13.3422332 94.2145929,13.2057397 94.3852097,13.0009996 C94.5899498,12.7621361 94.6581965,12.3185324 94.6581965,11.6701886 L94.6581965,7.74600239 C94.6581965,7.50713888 94.6581965,7.30239872 94.6240732,7.13178193 C94.5899498,6.96116514 94.5217031,6.82467171 94.419333,6.72230163 C94.316963,6.61993155 94.1804695,6.51756148 93.9757294,6.48343812 C93.7709892,6.4151914 93.5321257,6.38106804 93.1908921,6.38106804 C93.1908921,6.24457461 93.1908921,6.10808118 93.2250155,5.97158774 C93.2591389,5.86921767 93.2932622,5.73272423 93.3615089,5.63035416 C93.5662491,5.63035416 93.7709892,5.5962308 94.0098527,5.52798408 C94.2487162,5.49386072 94.4875798,5.42561401 94.7264433,5.35736729 C94.9653068,5.28912057 95.2041703,5.22087385 95.4089104,5.15262714 C95.6136506,5.08438042 95.8183907,5.0161337 95.9548842,4.91376363 C96.0572542,4.94788699 96.1596243,5.05025706 96.2619944,5.15262714 C96.3302411,5.28912057 96.3984878,5.49386072 96.3984878,5.76684759 C96.3984878,6.21045125 96.3643645,6.61993155 96.2961178,6.9952885 L96.125501,7.8142491 C96.1937477,7.60950895 96.2619944,7.43889216 96.2961178,7.26827537 C96.3643645,7.02941186 96.4667346,6.82467171 96.5691046,6.68817827 C96.8420915,6.24457461 97.1833251,5.83509431 97.5928054,5.56210744 C98.0022857,5.25499721 98.4458893,5.11850378 98.9577397,5.11850378 C99.2307266,5.11850378 99.4695901,5.15262714 99.6743303,5.22087385 C99.8790704,5.28912057 100.117934,5.42561401 100.322674,5.56210744 C100.254427,5.90334102 100.220304,6.27869797 100.220304,6.72230163 C100.186181,7.16590529 100.186181,7.54126223 100.186181,7.88249582 C100.083811,7.91661918 99.9131938,7.95074254 99.7084536,7.98486589 C99.5037135,8.01898925 99.2989733,8.05311261 99.0601098,8.05311261 C99.0259864,7.43889216 98.9236164,6.9952885 98.7529996,6.82467171 C98.5823828,6.61993155 98.3435193,6.51756148 98.1046558,6.51756148 C97.934039,6.51756148 97.7634222,6.5858082 97.558682,6.72230163 C97.3539419,6.85879506 97.1833251,7.06353521 97.0127083,7.33652208 C96.8420915,7.60950895 96.7055981,7.91661918 96.603228,8.25785276 Z" id="XMLID_2776_" fill="url(#linearGradient-10)"></path>
                    <path d="M108.20517,8.25785276 C108.375787,7.84837246 108.478157,7.50713888 108.51228,7.20002865 C108.546403,6.92704178 108.51228,6.68817827 108.444033,6.51756148 C108.375787,6.34694469 108.239293,6.21045125 108.034553,6.10808118 C107.829813,6.0057111 107.590949,5.93746438 107.317963,5.90334102 C107.215592,5.63035416 107.181469,5.35736729 107.181469,5.05025706 C107.488579,5.08438042 107.79569,5.08438042 108.1028,5.08438042 L110.150201,5.08438042 C110.491435,5.08438042 110.798545,5.08438042 111.105655,5.05025706 C111.105655,5.1867505 111.105655,5.32324393 111.105655,5.45973736 C111.105655,5.5962308 111.071532,5.73272423 111.003285,5.90334102 C110.832668,5.93746438 110.662052,6.0057111 110.525558,6.07395782 C110.389065,6.14220453 110.286695,6.27869797 110.150201,6.4151914 C110.047831,6.55168484 109.911338,6.75642499 109.808968,7.02941186 C109.706598,7.26827537 109.570104,7.57538559 109.399487,7.95074254 L106.499002,14.843661 C106.123645,15.7308683 105.782411,16.4474588 105.509425,16.9934325 C105.236438,17.5394063 104.963451,17.9830099 104.690464,18.2559968 C104.4516,18.563107 104.178614,18.7337238 103.93975,18.8360939 C103.700887,18.938464 103.393776,18.9725873 103.120789,18.9725873 C102.711309,18.9725873 102.404199,18.938464 102.199459,18.8360939 C101.960595,18.7337238 101.789978,18.6313538 101.653485,18.5289837 C101.585238,18.3242435 101.585238,18.08538 101.585238,17.7782698 C101.585238,17.4711596 101.619362,17.2664194 101.653485,17.0958026 C102.097089,17.1640493 102.506569,17.1981727 102.916049,17.1981727 C103.291406,17.1981727 103.666763,17.0958026 104.007997,16.9251858 C104.34923,16.754569 104.656341,16.4474588 104.895204,16.0379785 C104.997574,15.9014851 105.099944,15.6967449 105.236438,15.4237581 C105.372931,15.1507712 105.543548,14.8095376 105.714165,14.4000573 C105.748288,14.3318106 105.782411,14.2635639 105.816535,14.1953171 C105.611795,13.7517135 105.407054,13.3081098 105.202314,12.8303828 C104.963451,12.2502857 104.690464,11.704312 104.4516,11.1242149 C104.212737,10.5782411 103.973873,10.0663908 103.73501,9.55454039 C103.496146,9.04269001 103.291406,8.63320971 103.120789,8.25785276 C102.881926,7.78012574 102.677186,7.37064544 102.506569,7.06353521 C102.335952,6.75642499 102.199459,6.51756148 102.028842,6.34694469 C101.892349,6.17632789 101.755855,6.03983446 101.619362,5.97158774 C101.482868,5.90334102 101.346375,5.83509431 101.175758,5.80097095 C101.107511,5.56210744 101.073388,5.28912057 101.073388,4.94788699 C101.448745,4.94788699 101.824102,4.98201034 102.199459,4.98201034 C102.574816,4.98201034 102.950173,4.98201034 103.291406,4.98201034 L104.553971,4.98201034 L105.270561,4.94788699 C105.509425,4.94788699 105.714165,4.91376363 105.918905,4.91376363 C105.918905,5.25499721 105.884782,5.52798408 105.782411,5.76684759 C105.441178,5.83509431 105.168191,5.90334102 104.963451,6.0057111 C104.758711,6.10808118 104.622217,6.21045125 104.553971,6.38106804 C104.485724,6.55168484 104.485724,6.75642499 104.553971,6.9952885 C104.622217,7.23415201 104.758711,7.54126223 104.929327,7.91661918 C105.065821,8.18960605 105.202314,8.53083963 105.372931,8.90619658 C105.543548,9.28155352 105.714165,9.65691046 105.884782,10.0663908 C106.055398,10.4758711 106.226015,10.851228 106.396632,11.2607083 C106.499002,11.4995718 106.601372,11.7384353 106.669619,11.9772988 C106.737865,11.8408054 106.806112,11.6701886 106.874359,11.5336952 L108.20517,8.25785276 Z" id="XMLID_2774_" fill="url(#linearGradient-11)"></path>
                </g>
                <g id="XMLID_2800_">
                    <path d="M5.05025706,8.29197612 C4.94788699,8.53083963 4.53840668,8.73557978 4.23129646,8.8038265 C3.95830959,8.87207322 3.58295265,8.97444329 3.13934898,9.14506008 C2.83223876,9.24743016 2.62749861,9.07681337 2.52512853,8.8038265 C2.42275846,8.49671627 2.18389495,8.2237294 1.84266136,7.95074254 C1.60379785,7.78012574 1.3990577,7.4047688 1.53555113,7.13178193 C1.97915479,6.38106804 3.17347234,5.56210744 4.53840668,5.35736729 C4.84551691,5.32324393 5.35736729,5.35736729 5.63035416,5.42561401 C6.68817827,5.69860087 7.64363231,5.97158774 8.56496299,6.34694469 C8.83794986,6.44931476 9.28155352,6.72230163 9.48629367,6.96116514 C10.2028842,7.67775567 10.8171047,8.49671627 11.3972017,9.38392359 C11.5678185,9.6227871 11.7384353,10.1005141 11.6701886,10.4076244 C11.5678185,10.7488579 11.3630784,10.851228 11.1242149,10.6123645 C10.7488579,10.3052543 10.4417477,10.0663908 10.1687608,9.89577397 C9.92989733,9.72515718 9.69103382,9.34980024 9.6227871,9.04269001 C9.52041703,8.53083963 9.31567688,8.01898925 9.00856665,7.60950895 C8.83794986,7.37064544 8.3943462,7.06353521 8.12135933,6.9952885 C7.20002865,6.72230163 6.24457461,6.89291842 5.49386072,7.43889216 C5.28912057,7.60950895 5.15262714,8.05311261 5.05025706,8.29197612 Z" id="XMLID_2990_" fill="url(#radialGradient-12)"></path>
                    <path d="M9.75928054,11.3630784 C9.52041703,11.328955 9.31567688,11.328955 9.14506008,11.2948317 C8.83794986,11.2607083 8.46259291,11.0218448 8.25785276,10.8171047 C7.91661918,10.4417477 7.50713888,10.1005141 6.9952885,9.89577397 C6.72230163,9.75928054 6.21045125,9.72515718 5.90334102,9.82752726 C4.98201034,10.0663908 4.16304974,10.7488579 3.7876928,11.5678185 C3.65119936,11.8408054 3.75356944,12.2844091 3.82181615,12.5232726 C3.89006287,12.7621361 3.617076,13.1716164 3.37821249,13.4104799 C3.17347234,13.6152201 2.93460883,13.8540836 2.62749861,14.1953171 C2.42275846,14.4341807 2.11564823,14.4000573 1.87678472,14.2294405 C1.60379785,14.0588237 1.22844091,13.9564536 0.750713888,13.9564536 C0.443603661,13.9564536 0.0341233585,13.7517135 0.0341233585,13.4446033 C2.08166817e-17,12.6256427 0.614220453,11.2948317 1.77441464,10.3052543 C2.01327815,10.1005141 2.45688181,9.89577397 2.76399204,9.7934039 C3.92418623,9.45217031 4.94788699,9.17918344 5.97158774,9.00856665 C6.27869797,8.94031993 6.75642499,8.97444329 7.06353521,9.07681337 C8.08723597,9.34980024 9.00856665,9.7934039 9.92989733,10.2028842 C10.2028842,10.3393776 10.5782411,10.6464879 10.6806112,10.9535981 C10.7147346,11.0559682 10.7147346,11.1242149 10.7147346,11.1924616 C10.6806112,11.4995718 10.0663908,11.3972017 9.75928054,11.3630784 Z" id="XMLID_2989_" fill="url(#radialGradient-13)"></path>
                    <path d="M9.45217031,12.7962594 C9.2133068,12.8986295 9.04269001,12.9668762 8.87207322,13.0692463 C8.59908635,13.2057397 8.15548269,13.2057397 7.84837246,13.1033697 C7.37064544,12.9327529 6.82467171,12.8645062 6.31282133,12.9327529 C6.0057111,12.9668762 5.56210744,13.1716164 5.32324393,13.4104799 C4.64077676,14.0929471 4.29954317,15.0142778 4.40191325,15.8673617 C4.43603661,16.1744719 4.74314684,16.5157055 4.87964027,16.7204457 C5.05025706,16.9251858 5.0161337,17.3687895 4.94788699,17.6758997 C4.87964027,17.9147632 4.81139355,18.2559968 4.70902348,18.6313538 C4.64077676,18.938464 4.36778989,19.0408341 4.06067966,19.0067107 C3.75356944,18.9725873 3.44645921,19.0067107 3.03697891,19.1773275 C2.76399204,19.2796976 2.32038838,19.2796976 2.14977159,19.0067107 C1.74029128,18.3583669 1.60379785,17.1981727 2.04740151,15.9014851 C2.14977159,15.5943748 2.42275846,15.2190179 2.66162196,14.9801544 C3.44645921,14.1611938 4.1971731,13.4104799 5.0161337,12.7621361 C5.25499721,12.5573959 5.69860087,12.3185324 6.0057111,12.2502857 C7.02941186,11.9772988 8.05311261,11.8749288 9.07681337,11.7725587 C9.38392359,11.7384353 9.86165061,11.8408054 10.0663908,12.0455456 C10.1346375,12.1137923 10.1687608,12.1479156 10.2028842,12.2161624 C10.3393776,12.4550259 9.75928054,12.659766 9.45217031,12.7962594 Z" id="XMLID_2988_" fill="url(#radialGradient-14)"></path>
                    <path d="M9.55454039,14.6730442 C9.38392359,14.9119077 9.00856665,15.1507712 8.70145642,15.2190179 C8.18960605,15.321388 7.67775567,15.5261281 7.26827537,15.8332384 C7.02941186,16.0038551 6.72230163,16.4474588 6.65405491,16.7204457 C6.38106804,17.6417764 6.55168484,18.5972304 7.09765857,19.3479443 C7.26827537,19.5868078 7.71187903,19.7574246 7.95074254,19.8597947 C8.18960605,19.9621647 8.3943462,20.371645 8.46259291,20.6787553 C8.53083963,20.9517421 8.63320971,21.3270991 8.8038265,21.7707027 C8.90619658,22.077813 8.73557978,22.2825531 8.46259291,22.3849232 C8.15548269,22.4872933 7.88249582,22.7261568 7.60950895,23.0673904 C7.43889216,23.3062539 7.06353521,23.510994 6.79054835,23.3745006 C6.03983446,22.9308969 5.22087385,21.7365794 5.0161337,20.371645 C4.98201034,20.0645348 5.0161337,19.5526844 5.08438042,19.2796976 C5.35736729,18.2218735 5.63035416,17.2664194 6.0057111,16.3450887 C6.10808118,16.0721019 6.38106804,15.6284982 6.61993155,15.4237581 C7.33652208,14.7071675 8.15548269,14.0929471 9.04269001,13.51285 C9.28155352,13.3422332 9.75928054,13.1716164 10.0663908,13.2398631 C10.4076244,13.3422332 10.5099944,13.5469733 10.2711309,13.7858368 C9.96402069,14.1270704 9.72515718,14.4341807 9.55454039,14.6730442 Z" id="XMLID_2987_" fill="url(#radialGradient-15)"></path>
                    <path d="M10.4758711,16.6863223 C10.1005141,17.0275559 9.75928054,17.4370362 9.55454039,17.9488866 C9.41804695,18.2218735 9.38392359,18.7337238 9.48629367,19.0408341 C9.72515718,19.9621647 10.4076244,20.7811253 11.226585,21.1564823 C11.4995718,21.2929757 11.9431755,21.1906056 12.182039,21.1223589 C12.4550259,21.0882356 12.8303828,21.3270991 13.0692463,21.5659626 C13.2739865,21.7707027 13.51285,22.0095662 13.8540836,22.3166765 C14.0929471,22.5214166 14.0588237,22.8285269 13.8882069,23.1015137 C13.7175901,23.3745006 13.6152201,23.7498575 13.6152201,24.2275846 C13.6152201,24.5346948 13.4104799,24.9441751 13.1033697,24.9441751 C12.2844091,24.9782984 10.9535981,24.364078 9.96402069,23.2038838 C9.75928054,22.9650203 9.55454039,22.5214166 9.45217031,22.2143064 C9.11093673,21.0541122 8.83794986,20.0304115 8.66733307,19.0067107 C8.59908635,18.6996005 8.63320971,18.2218735 8.73557978,17.9147632 C9.00856665,16.8910625 9.45217031,15.9697318 9.86165061,15.0484011 C9.99814405,14.7754142 10.3052543,14.4000573 10.6123645,14.2976872 C10.7147346,14.2635639 10.7829813,14.2635639 10.851228,14.2635639 C11.1583382,14.2635639 11.0559682,14.9119077 11.0218448,15.2190179 C10.9877214,15.4578814 10.9877214,15.6626216 10.9535981,15.8332384 C10.9194747,16.1062252 10.7147346,16.4815822 10.4758711,16.6863223 Z" id="XMLID_2986_" fill="url(#radialGradient-16)"></path>
                    <path d="M16.3450887,19.9962881 C16.5498289,19.8256713 16.9934325,19.8597947 17.3005428,19.9280414 C17.5394063,19.9962881 17.8806399,20.0645348 18.2559968,20.1669049 C18.563107,20.2351516 18.6654771,20.5081385 18.6313538,20.8152487 C18.5972304,21.1223589 18.6313538,21.4294692 18.8019705,21.8389495 C18.9043406,22.1119363 18.9043406,22.55554 18.6313538,22.7261568 C17.9830099,23.1356371 16.8228158,23.2721305 15.5261281,22.8285269 C15.2190179,22.7261568 14.843661,22.4531699 14.6047974,22.2143064 C13.7858368,21.4294692 13.035123,20.6787553 12.3867791,19.8597947 C12.182039,19.6209312 11.9431755,19.1773275 11.8749288,18.8702173 C11.6019419,17.8465165 11.4995718,16.8228158 11.3972017,15.799115 C11.3630784,15.4920048 11.4654485,15.0142778 11.6701886,14.7754142 C11.7384353,14.7071675 11.7725587,14.6730442 11.8408054,14.6389208 C12.1137923,14.468304 12.3185324,15.0825245 12.4550259,15.3555113 C12.5573959,15.5943748 12.6256427,15.7649916 12.7280127,15.9356084 C12.8645062,16.2085953 12.8645062,16.652199 12.7621361,16.9593092 C12.5915193,17.4370362 12.5232726,17.9830099 12.5915193,18.4948603 C12.6256427,18.8019705 12.8303828,19.2455742 13.0692463,19.4844377 C13.7517135,20.1669049 14.6730442,20.5081385 15.5261281,20.4057684 C15.799115,20.4740151 16.1403486,20.1669049 16.3450887,19.9962881 Z" id="XMLID_2985_" fill="url(#radialGradient-17)"></path>
                    <path d="M19.5185611,16.9593092 C19.6209312,16.7204457 20.0304115,16.5157055 20.3375217,16.4474588 C20.6105085,16.3792121 20.9858655,16.276842 21.4294692,16.1062252 C21.7365794,16.0038551 21.9413195,16.1744719 22.0436896,16.4474588 C22.1460597,16.754569 22.3849232,17.0275559 22.7261568,17.3005428 C22.9650203,17.4711596 23.1697604,17.8465165 23.033267,18.1195034 C22.5896633,18.8702173 21.3953458,19.6891779 20.0304115,19.893918 C19.7233012,19.9280414 19.2114508,19.893918 18.938464,19.8256713 C17.8806399,19.5526844 16.9251858,19.2796976 16.0038551,18.9043406 C15.7308683,18.8019705 15.2872646,18.5289837 15.0825245,18.2901202 C14.3659339,17.5735296 13.7517135,16.754569 13.1716164,15.8673617 C13.0009996,15.6284982 12.8303828,15.1507712 12.8986295,14.843661 C13.0009996,14.5024274 13.2057397,14.4000573 13.4446033,14.6389208 C13.8199602,14.946031 14.1270704,15.1848945 14.4000573,15.3555113 C14.6389208,15.5261281 14.8777843,15.9014851 14.946031,16.2085953 C15.0484011,16.7204457 15.2531413,17.2322961 15.5602515,17.6417764 C15.7308683,17.8806399 16.1744719,18.1877501 16.4474588,18.2559968 C17.3687895,18.5289837 18.3242435,18.3583669 19.0749574,17.8123932 C19.2796976,17.6417764 19.416191,17.1981727 19.5185611,16.9593092 Z" id="XMLID_2984_" fill="url(#radialGradient-18)"></path>
                    <path d="M20.7811253,12.7280127 C20.747002,12.4550259 20.9858655,12.0796689 21.224729,11.8408054 C21.4294692,11.6360653 21.6683327,11.3972017 21.9754429,11.0559682 C22.180183,10.8171047 22.4872933,10.851228 22.7602801,11.0218448 C23.033267,11.1924616 23.4086239,11.2948317 23.886351,11.2948317 C24.1934612,11.2948317 24.6029415,11.4995718 24.6029415,11.806682 C24.6370649,12.6256427 24.0228444,13.9564536 22.8626502,14.946031 C22.6237867,15.1507712 22.180183,15.3555113 21.8730728,15.4578814 C20.7128786,15.799115 19.6891779,16.0721019 18.6654771,16.2427187 C18.3583669,16.3109654 17.8806399,16.276842 17.5735296,16.1744719 C16.5498289,15.9014851 15.6284982,15.4578814 14.7071675,15.0484011 C14.4341807,14.9119077 14.0588237,14.6047974 13.9564536,14.2976872 C13.9223303,14.1953171 13.9223303,14.1270704 13.9223303,14.0588237 C13.9223303,13.7517135 14.5706741,13.8540836 14.8777843,13.8882069 C15.1166478,13.9223303 15.321388,13.9223303 15.4920048,13.9564536 C15.799115,13.990577 16.1744719,14.2294405 16.3792121,14.4341807 C16.7204457,14.8095376 17.129926,15.1507712 17.6417764,15.3555113 C17.9147632,15.4920048 18.4266136,15.5261281 18.7337238,15.4237581 C19.6550545,15.1848945 20.4740151,14.5024274 20.8493721,13.6834668 C20.9176188,13.4104799 20.8152487,13.0009996 20.7811253,12.7280127 Z" id="XMLID_2983_" fill="url(#radialGradient-19)"></path>
                    <path d="M19.6550545,8.56496299 C19.4844377,8.36022284 19.5185611,7.91661918 19.5868078,7.60950895 C19.6550545,7.37064544 19.7233012,7.02941186 19.8256713,6.65405491 C19.893918,6.34694469 20.1669049,6.24457461 20.4740151,6.27869797 C20.7811253,6.31282133 21.0882356,6.27869797 21.4977159,6.10808118 C21.7707027,6.0057111 22.2143064,6.0057111 22.3849232,6.27869797 C22.7944035,6.92704178 22.9308969,8.08723597 22.4872933,9.38392359 C22.3849232,9.69103382 22.1119363,10.0663908 21.8730728,10.3052543 C21.0882356,11.1242149 20.3375217,11.8749288 19.5185611,12.5232726 C19.2796976,12.7280127 18.8360939,12.9668762 18.5289837,13.035123 C17.5052829,13.3081098 16.4815822,13.4104799 15.4578814,13.51285 C15.1507712,13.5469733 14.6730442,13.4446033 14.4341807,13.2398631 C14.3659339,13.1716164 14.3318106,13.137493 14.2976872,13.0692463 C14.1270704,12.7962594 14.7412909,12.5915193 15.0142778,12.4550259 C15.2531413,12.3526558 15.4237581,12.2844091 15.5943748,12.182039 C15.8673617,12.0455456 16.3109654,12.0455456 16.6180756,12.1479156 C17.0958026,12.3185324 17.6417764,12.3867791 18.1536267,12.3185324 C18.460737,12.2844091 18.9043406,12.0796689 19.1432041,11.8408054 C19.8256713,11.1583382 20.1669049,10.2370076 20.0645348,9.38392359 C20.1327815,9.11093673 19.8256713,8.76970314 19.6550545,8.56496299 Z" id="XMLID_2982_" fill="url(#radialGradient-20)"></path>
                    <path d="M16.6180756,5.39149065 C16.3792121,5.28912057 16.1744719,4.87964027 16.1062252,4.57253004 C16.0379785,4.29954317 15.9356084,3.92418623 15.7649916,3.48058257 C15.6626216,3.17347234 15.8332384,2.96873219 16.1062252,2.86636212 C16.4133355,2.76399204 16.6863223,2.52512853 16.9593092,2.18389495 C17.129926,1.94503144 17.5052829,1.74029128 17.7782698,1.87678472 C18.5289837,2.32038838 19.3479443,3.51470593 19.5526844,4.87964027 C19.5868078,5.1867505 19.5526844,5.69860087 19.4844377,5.97158774 C19.2114508,7.02941186 18.938464,7.98486589 18.563107,8.90619658 C18.460737,9.17918344 18.1877501,9.6227871 17.9488866,9.82752726 C17.2322961,10.5441178 16.4133355,11.1583382 15.5261281,11.7384353 C15.2872646,11.9090521 14.8095376,12.0796689 14.5024274,12.0114222 C14.1611938,11.9090521 14.0588237,11.704312 14.2976872,11.4654485 C14.6047974,11.0900915 14.843661,10.7829813 15.0142778,10.5099944 C15.1848945,10.2711309 15.5602515,10.0322674 15.8673617,9.96402069 C16.3792121,9.86165061 16.8910625,9.65691046 17.3005428,9.34980024 C17.5394063,9.17918344 17.8465165,8.73557978 17.9147632,8.46259291 C18.1877501,7.54126223 18.0171333,6.5858082 17.4711596,5.83509431 C17.3005428,5.63035416 16.8569391,5.49386072 16.6180756,5.39149065 Z" id="XMLID_2981_" fill="url(#radialGradient-21)"></path>
                    <path d="M12.3867791,4.12892638 C12.1137923,4.16304974 11.7384353,3.92418623 11.4995718,3.68532272 C11.2948317,3.48058257 11.0559682,3.24171906 10.7147346,2.93460883 C10.4758711,2.72986868 10.5099944,2.42275846 10.6806112,2.18389495 C10.851228,1.91090808 10.9535981,1.53555113 10.9535981,1.05782411 C10.9535981,0.750713888 11.1583382,0.341233585 11.4654485,0.341233585 C12.2844091,0.307110227 13.6152201,0.92133068 14.6047974,2.08152487 C14.8095376,2.32038838 15.0142778,2.76399204 15.1166478,3.07110227 C15.4578814,4.23129646 15.7308683,5.25499721 15.9014851,6.27869797 C15.9697318,6.5858082 15.9356084,7.06353521 15.8332384,7.37064544 C15.5602515,8.3943462 15.1166478,9.31567688 14.7071675,10.2370076 C14.5706741,10.5099944 14.2635639,10.8853514 13.9564536,10.9877214 C13.8540836,11.0218448 13.7858368,11.0218448 13.7175901,11.0218448 C13.4104799,11.0218448 13.51285,10.373501 13.5469733,10.0663908 C13.5810967,9.82752726 13.5810967,9.6227871 13.6152201,9.45217031 C13.6493434,9.14506008 13.8882069,8.76970314 14.0929471,8.56496299 C14.468304,8.2237294 14.8095376,7.8142491 15.0142778,7.30239872 C15.1507712,7.02941186 15.1848945,6.51756148 15.0825245,6.21045125 C14.843661,5.28912057 14.1611938,4.47015997 13.3422332,4.09480302 C13.0692463,3.99243295 12.659766,4.09480302 12.3867791,4.12892638 Z" id="XMLID_2980_" fill="url(#radialGradient-22)"></path>
                    <path d="M8.2237294,5.25499721 C8.01898925,5.42561401 7.57538559,5.39149065 7.26827537,5.32324393 C7.02941186,5.25499721 6.68817827,5.1867505 6.31282133,5.08438042 C6.0057111,5.0161337 5.90334102,4.74314684 5.93746438,4.43603661 C5.97158774,4.12892638 5.93746438,3.82181615 5.76684759,3.41233585 C5.66447752,3.13934898 5.66447752,2.69574532 5.93746438,2.52512853 C6.5858082,2.11564823 7.74600239,1.97915479 9.04269001,2.42275846 C9.34980024,2.52512853 9.72515718,2.7981154 9.96402069,3.03697891 C10.7829813,3.82181615 11.5336952,4.57253004 12.182039,5.39149065 C12.3867791,5.63035416 12.6256427,6.07395782 12.6938894,6.38106804 C12.9668762,7.4047688 13.0692463,8.42846956 13.1716164,9.45217031 C13.2057397,9.75928054 13.1033697,10.2370076 12.8986295,10.4758711 C12.8303828,10.5441178 12.7962594,10.5782411 12.7280127,10.6123645 C12.4550259,10.7829813 12.2502857,10.1687608 12.1137923,9.89577397 C12.0114222,9.65691046 11.9431755,9.48629367 11.8408054,9.31567688 C11.704312,9.04269001 11.704312,8.59908635 11.806682,8.29197612 C11.9772988,7.8142491 12.0455456,7.26827537 11.9772988,6.75642499 C11.9431755,6.44931476 11.7384353,6.0057111 11.4995718,5.76684759 C10.8171047,5.08438042 9.89577397,4.74314684 9.04269001,4.84551691 C8.76970314,4.77727019 8.42846956,5.08438042 8.2237294,5.25499721 Z" id="XMLID_2979_" fill="url(#radialGradient-23)"></path>
                </g>
            </g>
        </g>
    </g>
</svg>